<svg xmlns="http://www.w3.org/2000/svg" width="1024" height="1024" viewBox="0 0 1024 1024" role="img" aria-label="Cut Pillar app icon">
  <title>Cut Pillar app icon</title>
  <defs>
  <filter id="softShadow" x="-20%" y="-20%" width="140%" height="140%">
    <feDropShadow dx="0" dy="28" stdDeviation="28" flood-color="#000000" flood-opacity="0.22"/>
  </filter>
  <filter id="tightShadow" x="-20%" y="-20%" width="140%" height="140%">
    <feDropShadow dx="0" dy="16" stdDeviation="16" flood-color="#000000" flood-opacity="0.2"/>
  </filter></defs>

  <rect width="1024" height="1024" rx="224" fill="#F0EEE7"/>
  <path d="M396 186h232c74 0 134 60 134 134v372c0 74-60 134-134 134h-74l-42 54-42-54h-74c-74 0-134-60-134-134V320c0-74 60-134 134-134Z" fill="#111111" filter="url(#softShadow)"/>
  <rect x="382" y="296" width="86" height="406" rx="43" fill="#F0EEE7"/>
  <rect x="556" y="296" width="86" height="406" rx="43" fill="#F0EEE7"/>
  <rect x="425" y="472" width="174" height="80" rx="38" fill="#F0EEE7"/>
  <path d="M486 826h52l-26 34-26-34Z" fill="#FF6B35"/>
</svg>
